#!OML:ASF E:/inclinewalkrobotboard/Project1/Captureday1/Session1/subject1.ASF
:FULLY-SPECIFIED
:DEGREES
22
root 0 0 0 -2.2302707364207444 -3.8611608421196824 0.49038063955455574
lowerback 7.406635278194519 1.581115887735647 -2.489518616475225
upperback 1.8541922249291725 1.966696476113915 -0.061496141585584585
thorax -2.2563779719917005 1.0344325934027327 1.2244115763326833
lowerneck -9.188860592060232 -5.490774603487739 -6.386401644947833
upperneck 31.111937177064984 -8.631690254696801 5.9609478091562575
head 11.62072824438364 -3.9373016707744766 1.9720721054349495
rclavicle -3.2284012768328476E-15 1.7152646428801063E-15
rhumerus -9.78540703123275 3.9240800053005485 -79.84270595501535
rradius 51.703096483118124
rwrist -21.49084035084768
rhand -41.804333384407 15.136352921913227
rfingers 7.1250199999999495
rthumb -14.675056169309194 -14.294565936175447
lclavicle -6.792618649156866E-15 1.2119353689213161E-15
lhumerus -30.598417169184366 11.379368461960746 77.82949520881053
lradius 24.896076254039176
lwrist -4.664413589995193
lhand -23.924396568107678 22.03830580334033
lfingers 7.125019999999952
lthumb 2.5503219776946606 51.97234927539691
rfemur -0.4099143762306592 8.321975211043481 34.37205943252336
rtibia 27.59454338380538
rfoot -20.215433094578614 -9.189670622907364
rtoes 5.347196372541992
lfemur -28.6761229254588 3.3073056611046336 -13.046821776795216
ltibia 55.95517223360401
lfoot -5.3244072500339 -4.05712961558635
ltoes -7.494996297048239
23
root 0 0 0 -2.1847898020821166 -3.8155737477945566 0.5025461173837793
lowerback 7.439317125493505 1.5984525505445453 -2.50402606098171
upperback 1.9024168246170832 1.9867660490389087 -0.07275816383039668
thorax -2.2240957139074764 1.0458956077519843 1.2171235197802601
lowerneck -9.10556995536725 -5.513168595088839 -6.439599793959584
upperneck 31.001879197023854 -8.655273818696827 6.053806747636196
head 11.584557671793627 -3.950122051496874 2.0074004790780617
rclavicle -3.154202886156894E-15 1.779641180015215E-15
rhumerus -10.065405145348823 4.2389739050623545 -79.92566726738744
rradius 51.983661807735224
rwrist -21.53969273005916
rhand -41.81633037496371 15.11618424776251
rfingers 7.125019999999951
rthumb -14.688335766862755 -14.316179314142806
lclavicle -6.785058415911933E-15 1.362828737556214E-15
lhumerus -30.7200649229926 11.496304364874991 77.61505849324686
lradius 24.846267860263072
lwrist -4.737339190870921
lhand -24.012868575793913 22.007871490549977
lfingers 7.125019999999953
lthumb 2.4653822512194155 51.94278064097963
rfemur 1.394927373186921 8.410303819528668 34.568970028606415
rtibia 26.677768865302987
rfoot -20.88011978219905 -9.163436184847782
rtoes 4.864461500538572
lfemur -30.151005991765487 2.7449867089801607 -12.855202260921665
ltibia 51.74203108428821
lfoot -5.61906566754963 -3.428198986817714
ltoes -7.181794221051453
24
root 0 0 0 -2.149079076424743 -3.7773484714678967 0.5110624995330348
lowerback 7.470259622289805 1.6115287879005136 -2.5164875775036375
upperback 1.9359189309347773 2.001691392973445 -0.08077932594517578
thorax -2.2066746256099066 1.0542917148398323 1.2125981753077077
lowerneck -9.057375894747729 -5.5311367403628395 -6.479606058100377
upperneck 30.924280322366783 -8.673170163810841 6.124726403243573
head 11.56059078155253 -3.9595562702753453 2.0346862312690273
rclavicle -2.928652662530864E-15 1.7727446200754812E-15
rhumerus -10.177538225877598 4.33409655459409 -79.97123118248288
rradius 51.97621532678426
rwrist -21.530946049691426
rhand -41.83243001740013 15.177365872935654
rfingers 7.125019999999952
rthumb -14.7034594173285 -14.255317857947272
lclavicle -6.6699200050441345E-15 1.4154482399403719E-15
lhumerus -30.831575910059204 11.622758990146746 77.4094930775279
lradius 24.80410778190106
lwrist -4.79908094860482
lhand -24.115618538744762 21.967511767741247
lfingers 7.125019999999955
lthumb 2.366794719943151 51.903627143387546
rfemur 2.2712444123317934 8.455823461293654 34.641296323430545
rtibia 26.327649086613132
rfoot -21.102426643554004 -9.155882435646067
rtoes 4.450200061905434
lfemur -31.270658853362484 2.151868704050816 -12.773461392235717
ltibia 47.46151767065635
lfoot -5.6989516633842126 -3.093857687139339
ltoes -6.730881921200416
25
root 0 0 0 -2.1252483255195895 -3.7494424491063096 0.5148245205093902
lowerback 7.500280212075766 1.618689962281683 -2.5254162895490717
upperback 1.9507015269776993 2.0095309000848505 -0.08426938132495143
thorax -2.2090023944489108 1.058506810542326 1.2117887042720672
lowerneck -9.053354712599491 -5.542574475760527 -6.500635340171749
upperneck 30.8823362004398 -8.682251221002758 6.167445012558185
head 11.54989392712709 -3.9640664331667317 2.051846631915039
rclavicle -2.6204276273253844E-15 1.7292059901549128E-15
rhumerus -10.130540480108905 4.221362711708891 -79.98268061406627
rradius 51.71958076183351
rwrist -21.466048309189492
rhand -41.85895366078094 15.303180339834705
rfingers 7.125019999999951
rthumb -14.726687325413417 -14.12824878524301
lclavicle -6.4976550600613095E-15 1.409171393410774E-15
lhumerus -30.923781103688906 11.742910004911218 77.23196355688629
lradius 24.7707345524594
lwrist -4.847851397637117
lhand -24.21640939474808 21.92479929680002
lfingers 7.125019999999956
lthumb 2.2701271913744097 51.862270746961165
rfemur 2.6517594985605535 8.471820750751622 34.65921288970083
rtibia 26.34401382756411
rfoot -21.057187765322787 -9.129397970665162
rtoes 4.053008645776609
lfemur -31.90870818686127 1.626963086388841 -12.826063493996422
ltibia 43.79608646778554
lfoot -5.524857566543847 -3.11297395463726
ltoes -6.168486458423573
26
root 0 0 0 -2.108085106398653 -3.727794632048674 0.5130411019921379
lowerback 7.54536300448334 1.6188162585394068 -2.5326705341232314
upperback 1.9435332211178484 2.008471741103737 -0.08155528589699124
thorax -2.244456566653418 1.0574328717978423 1.2174827600739215
lowerneck -9.11472973824718 -5.548146186006575 -6.499124599456279
upperneck 30.87398159038084 -8.680365075406973 6.1856447335986875
head 11.553247711249865 -3.9624905997134343 2.0612304485598054
rclavicle -2.1702303201660557E-15 1.6493551609900852E-15
rhumerus -9.832556189315643 3.7604314126475034 -79.95011973375843
rradius 51.03023338887839
rwrist -21.29435690773884
rhand -41.91824295840925 15.552034359415595
rfingers 7.12501999999995
rthumb -14.778256248359627 -13.87479400920093
lclavicle -6.244682723418998E-15 1.3594453512808394E-15
lhumerus -31.022705150580652 11.901019037525597 77.02755993386833
lradius 24.7407729194904
lwrist -4.891510443719872
lhand -24.358122632196626 21.861585847074704
lfingers 7.125019999999957
lthumb 2.1342264504862483 51.80113764499113
rfemur 2.466942897253275 8.441833483588159 34.62577122918416
rtibia 26.990934012768967
rfoot -20.59307231389588 -9.059980832518885
rtoes 3.5793460830880774
lfemur -32.05181405638952 1.119174146276782 -13.159883318353984
ltibia 40.35123589802012
lfoot -4.911896060090577 -3.6997182565652285
ltoes -5.239858746489238
